<svg version="1" xmlns="http://www.w3.org/2000/svg" width="173.333" height="173.333" viewBox="0 0 130.000000 130.000000"><path d="M70 3c0 .5.4 1 .9 1 .6 0 1.3-.5 1.6-1 .3-.6-.1-1-.9-1-.9 0-1.6.4-1.6 1zM71 5.1c-1.8.8-2.1 1.2-1.1 1.8 1.1.7 1 1.1-.5 1.9-1.1.6-1.8 1.3-1.6 1.6.6 1.6 0 1.6-1.5 0-1.7-1.7-1.8-1.7-2.1 0-.5 2.4-.2 2.5 5 3.1 3.3.3 5 0 5.8-1 1.6-1.9 3.1-1.9 2.4 0-.8 2 1.9 2.9 4.4 1.6 1.5-.8 2.1-.8 2.4.1.6 1.7 2.8 0 2.8-2.3 0-1.9-2.1-2.2-4.7-.6-.9.6-1.3.2-1.3-1.1 0-1.7-.4-1.9-3.4-1.2-4.5 1-6.5-.2-4.8-3 .7-1.1 1.1-2 1-1.9-.2 0-1.4.5-2.8 1zM48.5 6.1c-.4.6-.5 1.2-.2 1.5.2.3.7-.2 1-1.1.7-1.7.1-2-.8-.4zM41.3 9c-2.4 1-4.3 2.4-4.3 3 0 1.4.7 1.3 5.1-.8 2.1-.9 3.9-2.3 3.9-3 0-1.5.3-1.5-4.7.8zM49.3 8.9c-2.7 2.3-3 5-.5 5.3 3.8.3 5.2-.3 8.9-3.7L61.5 7l-3.2.2c-1.8.1-3.3.8-3.3 1.4 0 .6-.9 1.4-2.1 1.7-2 .5-2 .5-.3-1.4 2.3-2.6-.2-2.6-3.3 0zM59.7 11.1C57 13.1 56.1 16 58 16c.6 0 1-.5 1-1.1 0-.5.4-.8.9-.5.8.5 3.5-4.3 2.8-5-.2-.3-1.6.5-3 1.7zM93.2 16.2c-1.5 1.9.2 4.8 1.9 3.1.7-.7.8-1.7.2-2.8-.8-1.3-1.1-1.4-2.1-.3zM26.9 18.2c-.5 1-.6 1.8-.2 1.8.4 0 0 .7-1.1 1.5-1 .7-1.5 1.8-1.2 2.4.4.6-.2 1.6-1.4 2.3-1.1.7-2 1.8-2 2.5s-.7 1.3-1.5 1.3c-2.1 0-1.9 1.8.3 2.3 1.6.4 1.6.5 0 .6-1 0-1.8.6-1.8 1.2s-.7 1.7-1.5 2.5c-1.5 1.6-2.1 3.9-.7 3.1.4-.3 1.3.1 2 .9s.9 1.4.4 1.4c-.9 0-6.2 11.1-6.2 12.9 0 .6-.4 1.2-.9 1.5-.5.3-1.1-1.2-1.3-3.3-.2-2.3.1-3.7.6-3.4.5.4.7-.1.3-1-.3-.9-.2-1.9.4-2.2.5-.4.7-1.7.5-3-.3-1.4 0-2.7.5-3 1.2-.8 1.2-4.5 0-4.5-.9 0-2.6 4.8-2.3 6.3.1.4-.2 1.6-.7 2.6-1.5 2.8-2.5 15.5-1.2 14.7.6-.4 1.1-.3 1.1.3 0 .5-.4 1.2-.9 1.5-1.4.9-.1 4.6 1.6 4.6 1.2 0 1.3-.3.4-1.4-.9-1-.8-1.6.4-2.6 1.8-1.5 2-3.5.3-2.4-.7.4-.8.3-.4-.4 1.2-1.9 2.5-1.4 3.2 1.3.5 2.1.8 2.3 2.1 1 2.4-2.4 2.8-1.7.5.8-1.4 1.5-2 3.2-1.8 5.2.2 1.7.4 4.9.5 7.3.1 3.9.3 4.3 2.1 3.7 1.8-.6 2-.3 1.4 1.9-.3 1.5-.2 3.2.4 3.9.5.6 1.2 2.5 1.6 4 .4 1.5 1.1 2.5 1.6 2.2.6-.3 1 .1 1 1 0 1.1.5 1.5 1.6 1.1.8-.3 1.2-.2.9.4-.3.6 0 1 .8 1 .7 0 1.9 1.2 2.6 2.6 1 2.4 1 2.6-.6 1.9-2.5-1-9.7-.6-10.1.6-.2.5-.8.6-1.3.3-1.7-1-4.9 2.8-4.9 5.8 0 1.5-.4 2.8-1 2.8-.5 0-.7.7-.4 1.5.6 1.4-1.2 2.1-4 1.6-.5-.1-1.3.4-1.7 1.1-.7 1-.9 1-.9 0 0-.6-.9-1.2-2-1.2s-2 .7-2 1.5c0 1.2 1.3 1.5 5.5 1.5 5.1 0 5.5.2 5.5 2.3 0 1.3 1.1 3.4 2.5 4.7 2.2 2.1 3.5 2.4 10.9 2.4 8.3.1 8.5.1 9-2.5.4-2.1 1.2-2.8 3.8-3.2 1.8-.3 3.7-.1 4.2.3.4.5 2.4.1 4.4-.7 2.5-1 3.7-1.1 4.2-.3s1.1.6 2-.5c1.6-1.9 1.7-1.8-4.3-3.3-6-1.5-9.1-3.7-11.1-8-.9-1.8-2-3.1-2.4-2.8-.4.2-.8-.8-.9-2.2 0-1.5-.6-2.8-1.2-3-.7-.2-.5-1.2.4-2.6C34 92.4 33.6 89 32 89c-.5 0-.7-1.1-.5-2.5.1-1.4-.1-2.5-.4-2.5-.4 0-.5-1.8-.3-4 .6-6.1-.3-8.7-3-8.5-1.6.2-2.2.8-2 2.1.9 5.8 1.1 16.4.3 16.4-.5 0-1.7-1.2-2.6-2.7-1.4-2-1.5-3-.7-4.4.8-1.3.8-2.6.1-4.9-.9-2.5-.8-3.4.5-4.9 1.8-2 2.2-3.6.6-2.6-.5.3-1-.3-1-1.4 0-1 .4-2.1 1-2.3.5-.2 1.1-2.6 1.4-5.3C26 54.2 27 51 28.6 51c2.3 0 10.7-4.6 12.8-6.9 1.1-1.2 3-2.1 4.3-2.1 2.9 0 6.6-2.4 8.7-5.5 2.2-3.4-.5-2.8-4.4 1-3 2.9-5.4 2.9-3 0 2-2.4-1.5-2-4 .5-1.1 1.1-2.6 1.7-3.6 1.3-1.1-.4-2.7.6-5 3.1-1.8 2-3.8 3.6-4.4 3.6-.6 0-.4-.7.5-1.6 3.2-3.2 4.8-6.5 3.8-7.5-.6-.6-1.4-.5-2.3.6-.7.8-1.9 1.5-2.6 1.5-.8 0-1.4.7-1.4 1.5 0 .9-1 1.9-2.3 2.4-4 1.6-5.6 4.8-6.1 12.6 0 1.1-.8 2.1-1.7 2.3-2.4.4-1.8-6.8 1-10.6 1.2-1.8 2.3-4.1 2.4-5.1.1-1.1 1-2.2 2.2-2.5 1.2-.4 3-2.7 4.5-6.1 1.4-3 2.8-5.5 3.3-5.5.4 0 .7-.9.7-2 0-1 .7-2.3 1.6-2.8 1.3-.7 1.5-1.7 1-3.7-.5-2.1-1-2.5-1.9-1.6-1.7 1.7-4.3 1.5-2.8-.2.8-1 .7-1.4-.5-1.4-.8 0-1.9.9-2.5 1.9zM24.2 53c-1.9 2.3-2.3 2.1-1.6-.7.4-1.3 1.2-1.9 1.9-1.7 1.1.5 1 .9-.3 2.4zM19 73.6c0 .8-.5 1.2-1 .9-.6-.4-.8-1.1-.5-1.6.9-1.4 1.5-1.1 1.5.7zm5.6 30.8c2 .4 3.4 1.3 3.4 2.1s.4 1.5.9 1.5c1.7 0 2.5 6.2 1 7.4-.8.7-1.9 2-2.5 3.1-1.5 2.7-5.2 3.1-7 .8-1-1.4-1.6-1.5-2.2-.5-.7 1-1.3.8-2.9-.6-1.9-1.6-2-2-.8-4.2 1.3-2.5 1.1-4.5-.5-3.5-.4.3-.6-.5-.3-1.7.7-2.9 6.7-8.2 7.1-6.3.2.7 1.9 1.6 3.8 1.9zm7.4-1.5c0 .6-.4 1.3-1 1.6-.5.3-1-.1-1-.9 0-.9.5-1.6 1-1.6.6 0 1 .4 1 .9zm3.6 6.4c1.1 1.8 2.6 3.1 3.2 3 .7-.2 1.2.3 1.2 1.1 0 1.1-1.1 1.4-3.9 1.3-2.9-.1-3.7-.5-3-1.3 1.2-1.4.1-6.6-1.2-5.8-.5.3-.9 0-.9-.5 0-2.2 2.6-.9 4.6 2.2zM97 19.4c0 .8-.8 1.7-1.7 1.9-1 .3-.4.5 1.4.6 2.5.1 3.1.4 2.6 1.7-.5 1.4-.3 1.5 1.4.5 1.9-1 2.2-.7 2.8 2.7.4 2 1.1 4 1.7 4.3.5.3 1 2.5 1.1 4.8.1 2.9.7 4.3 1.9 4.7.9.2 1.7 1.3 1.6 2.2 0 .9.3 4.8.7 8.7.3 3.8.7 8 .8 9.2.1 1.3-.1 2.3-.5 2.3H109c-.5 0-1-.9-1-1.9 0-1.1-.4-2.3-1-2.6-.5-.3-1-1.4-1-2.4s-.9-3-2.1-4.5c-1.1-1.5-1.8-3.3-1.5-4.1.3-.8.1-1.7-.3-2-2.3-1.4-1.9 9.8.3 12.1 1.9 1.8 3 8.4 1.7 9.7-.8.8-1.1.4-1.1-1.2s-.5-2.1-1.7-1.9c-1.4.3-1.7 1.2-1.5 4.3l.3 3.9-2.3-1.9c-1.3-1.1-2.6-2.5-3.1-3.2-1-1.6-6.4-4.2-10.1-4.9-1.7-.3-3.2-.7-3.4-.9-.5-.5-6.2 2.3-6.2 3 0 .3 2.2.5 4.9.4 3.2-.2 5.9.4 7.5 1.5 1.4.9 2.6 1.3 2.6.9s.7.3 1.6 1.5c.8 1.2 2 2 2.5 1.6.5-.3.8-.2.7.3-.1.4.6 2.3 1.5 4.1 1 1.8 1.9 5.3 2 7.9.2 4.3-.1 4.9-2.4 6-3.8 1.8-14.9 2-17.6.2-3.3-2-4.1-4.7-4.4-13.4-.1-6.3-1-9.8-2.1-8.7-1.1 1.1-1.7 12.2-.6 12.8.4.3.5 1.1.2 1.9-.3.8.4 3.5 1.6 5.9 1.8 3.9 2.6 4.5 6.3 5.2 4.4.8 8.2.7 15.9-.2l4.8-.6-.3 4.6c-.1 2.9-.7 4.6-1.4 4.6s-1.3.6-1.3 1.2c0 1.3-7.2 7.8-8.5 7.8-.4 0-1.9.8-3.3 1.9-2.8 2-7.8 3-15.1 3.1h-4.4l2.4 1.8c2.4 1.9 5.9 2.5 5.9 1.1 0-.4.8-.5 1.8-.3 2.2.6 10-2.1 12.5-4.4 1.9-1.6 2-1.6.8.6s-1.2 2.2 4.9 1.6c4.4-.4 6-.3 6 .6 0 2.6 5.4 6 9.3 6 4.7 0 10.7-2.7 10.7-4.7 0-1.3.2-1.3 1.6-.2 1.5 1.2 1.6 1.1 1-1.6-.3-1.7-1.1-5.7-1.6-9-1-6.3-2.7-8.5-6.6-8.5-1.3 0-2.6-.5-2.9-1.1-.4-.6-1.2-.8-1.9-.6-2 .8-7-3.9-6.2-5.8.5-1.4.9-1.5 2-.6 2 1.7 4.7-.2 6.7-4.7 1.2-2.7 1.5-6.3 1.4-12.7-.2-9.2.1-11.8 1.5-11 .4.2.8-3.7.8-8.7.2-8.1-.2-9.8-2.5-14.7-1.5-3.1-3.3-6.2-4-6.9-.7-.8-1.1-1.8-.7-2.3.3-.5-.2-1.6-1-2.5-.9-.8-1.6-2.4-1.6-3.4 0-2.1-3-3.6-4-1.9-.5.6-.9.3-1.3-1-.6-2.3-3.7-2.9-3.7-.7zm13.1 47.7c.1.5.2 1.5.3 2.1.1.7-.7 1.5-1.8 1.8-2.4.7-3.4 3-1.3 3 1.8 0 1.7 3.3-.3 6.9-1.1 2.2-1.3 2.3-2.3.6-1.7-3.2-.7-12.5 1.4-12.5.5 0 .9-.9.9-2 0-1.3.5-1.8 1.5-1.4.8.4 1.6 1 1.6 1.5zM107.5 85c-.9 1-2.4 1.6-3.2 1.3-1.1-.5-.8-1.1 1.4-2.9 3.1-2.5 4.5-1.3 1.8 1.6zM102 96c0 .5-.5 1-1.1 1-.5 0-.7-.5-.4-1 .3-.6.8-1 1.1-1 .2 0 .4.4.4 1zm12.4 3.9c-.2.3.7 1.7 2.1 3.1 3.1 3.2 3 6.5-.3 11-3.6 4.8-9.9 3.7-11.7-2.1-1-3.1.2-6.8 2.3-6.7.9.1 3-.2 4.7-.6l2.9-.7-3.2-1.6c-4.2-2-4.1-3.4.2-3 1.9.1 3.2.4 3 .6zm-14.2 9.8c-.3 1-6 3.3-8.3 3.3-.3 0 1.3-1.9 3.5-4.3 3.7-3.9 4.2-4.1 4.7-2.2.3 1.1.4 2.6.1 3.2zM72.8 37.2c-.6 1.7.3 5.8 1.2 5.8.4 0 1-.9 1.3-2 .3-1.1.1-2-.4-2-.4 0-.6-.7-.3-1.5.4-.8.2-1.5-.4-1.5-.6 0-1.2.5-1.4 1.2z"/><path d="M82 39.6c0 .8.4 1.2 1 .9.6-.3.7.1.4.9-.4 1.1 0 1.6 1 1.6 1.9 0 2-.5.6-3.1-1.3-2.3-3-2.5-3-.3zM89.7 38.6c-1 1 1.5 6.4 3 6.4 1 0 1.3-.5.8-1.8-.4-.9-1-2.5-1.2-3.5-.5-1.7-1.5-2.2-2.6-1.1zM95.7 40.4c-.3.8.3 2.5 1.3 3.8 1.1 1.3 2 2.1 2 1.8.7-3.1.6-4.1-1-5.5-1.5-1.4-1.8-1.4-2.3-.1zM56.5 41c-.4.7-.2 1.6.5 2 1 .6.9.9-.1 1.3-.9.3-1 .6-.2.6 1.8.1 2.5-1.7 1.5-3.5-.7-1.3-1.1-1.4-1.7-.4zM60 42.5c0 .8.7 1.5 1.5 1.5.9 0 1.2-.6.9-1.5-.4-.8-1-1.5-1.5-1.5s-.9.7-.9 1.5zM66 42c0 .5.5 1 1 1 .6 0 1-.5 1-1 0-.6-.4-1-1-1-.5 0-1 .4-1 1zM83.5 52c-.3.5-1.6.8-2.7.6-1.2-.1-3.3.3-4.7 1-1.3.7-2.8 1.1-3.3.8-.4-.3-.8 0-.8.7 0 .6-.8 1.8-1.7 2.6-1 .8-1.3 1.2-.7.9.6-.3 2.4-.2 4 .3 1.7.4 5 .2 8.4-.6 3-.8 6.7-1.4 8.2-1.4 4.2 0 4.3-2.7.1-4.4-4.1-1.7-5.9-1.9-6.8-.5zM31.3 57.9c-3.2 1.4-4.2 3.4-2.4 4.5.5.3 4.3 1.1 8.4 1.8l7.5 1.1-3.1 1.6c-1.8.9-3.5 1.3-3.8.9-.3-.5-2.1-.3-4 .4l-3.4 1.3 4.5.5c3.2.4 5.1.1 6.4-1 1.4-1.1 1.7-1.1 1.1-.1-.6 1-.1 1.2 2.3.7 3.1-.7 5.1.5 7.4 4.7 1.8 3.3 2.1 4.7 2.1 11 0 8.8-1.8 10.2-12.7 10.2-4.7 0-8.6.4-8.6.8 0 .5.5.5 1 .2.6-.3 1 .1 1 1 0 1.4.7 1.6 4.3.9 2.3-.4 5.9-.6 8-.5 2.6.1 3.9-.3 4.3-1.4.3-.8 1.3-1.5 2.2-1.5.8 0 1.2-.3.9-.7-.4-.3.1-1.1.9-1.8 1-.7 1.9-3.2 2.2-6.3.4-4.6.8-5.2 3.8-6.7 1.9-.9 4.2-1.5 5.1-1.3 1.1.2 1.8-.3 1.8-1.2 0-2.1-5.1-2.5-8.1-.5-2.3 1.5-2.5 1.5-3.7-1.2-1.2-2.9-5.6-7.8-6.8-7.8-.4 0-1.1-.3-1.5-.8-.4-.4 0-.7.9-.7s1.9-.5 2.3-1.1c1-1.7-1.2-3.2-4.4-3.1-2.4 0-2.9-.3-2.5-1.7.8-3.3-7.9-4.7-13.4-2.2zM80 99.4c-1.4.6-2.8 1.5-3.1 2-.4.4-1.2.5-1.8.2-.6-.4-1.1-.3-1.1.3 0 .5-.9 1.3-2 1.6-1.1.3-2 1.1-2 1.6 0 1.5 3.3 2.4 3.8 1.1.2-.7.8-1 1.2-.7 1.3.8 7.2-1.9 9.3-4.2 1.7-2 1.7-2.1 0-2.5-1-.3-2.9 0-4.3.6zM54.5 102.9c-.6 1.1.9 2.3 1.9 1.4.9-.9.7-2.3-.3-2.3-.6 0-1.2.4-1.6.9zM126 114c0 1.3 1.1 1.3 3 0 1.2-.8 1.1-1-.7-1-1.3 0-2.3.4-2.3 1z"/></svg>