<?xml version="1.0" standalone="no"?>
<!DOCTYPE svg PUBLIC "-//W3C//DTD SVG 20010904//EN"
 "http://www.w3.org/TR/2001/REC-SVG-20010904/DTD/svg10.dtd">
<svg version="1.0" xmlns="http://www.w3.org/2000/svg"
 width="120.000000pt" height="120.000000pt" viewBox="0 0 120.000000 120.000000"
 preserveAspectRatio="xMidYMid meet">
<metadata>
Created by potrace 1.14, written by Peter Selinger 2001-2017
</metadata>
<g transform="translate(0.000000,120.000000) scale(0.100000,-0.100000)"
fill="#000000" stroke="none">
<path d="M651 1166 c-6 -16 -9 -31 -6 -34 10 -11 -17 -30 -35 -25 -13 4 -20 0
-20 -10 0 -22 80 -30 102 -11 15 14 17 13 23 -6 4 -12 12 -19 18 -17 43 18 47
18 47 7 0 -6 5 -8 10 -5 20 12 10 35 -15 35 -15 0 -25 6 -25 14 0 12 -7 13
-32 6 -35 -11 -65 4 -49 24 5 6 5 20 1 31 -7 18 -9 18 -19 -9z"/>
<path d="M516 1125 c-16 -17 -41 -21 -31 -5 12 19 -22 10 -41 -11 -18 -20 -18
-21 0 -34 10 -8 25 -11 34 -8 30 11 82 55 76 64 -8 13 -21 11 -38 -6z"/>
<path d="M373 1115 c-18 -8 -33 -19 -33 -25 0 -14 12 -13 48 6 61 30 47 46
-15 19z"/>
<path d="M540 1091 c-18 -35 -11 -45 15 -21 14 13 25 27 25 32 0 16 -29 8 -40
-11z"/>
<path d="M860 1041 c0 -12 5 -21 10 -21 6 0 10 6 10 14 0 8 -4 18 -10 21 -5 3
-10 -3 -10 -14z"/>
<path d="M252 1038 c-7 -7 -12 -18 -12 -25 0 -7 -5 -13 -11 -13 -6 0 -9 -7 -5
-15 3 -9 -3 -20 -14 -27 -11 -7 -20 -18 -20 -25 0 -6 -6 -14 -12 -16 -10 -4
-10 -6 0 -6 16 -1 16 -21 -1 -21 -21 0 -39 -46 -23 -59 11 -9 8 -22 -15 -69
-16 -31 -29 -63 -29 -69 0 -7 -5 -13 -11 -13 -8 0 -9 13 -4 43 5 23 9 54 10
70 1 15 5 30 8 34 4 3 7 15 7 27 0 30 -20 6 -32 -40 -15 -56 -25 -164 -15
-164 4 0 7 -6 6 -12 -3 -25 1 -48 9 -48 4 0 9 9 10 20 4 43 6 50 13 50 4 0 11
-9 14 -20 4 -11 11 -18 16 -14 6 3 5 -2 -1 -12 -15 -24 0 -140 18 -136 7 1 12
-10 12 -27 0 -17 5 -33 10 -36 6 -3 10 -13 10 -22 0 -14 19 -35 68 -74 6 -5
12 -17 12 -26 0 -11 -3 -13 -13 -5 -15 13 -47 11 -99 -7 -37 -12 -41 -18 -53
-80 l-7 -34 -49 6 c-39 5 -49 3 -49 -8 0 -11 13 -15 49 -15 42 0 50 -3 55 -23
3 -12 18 -34 33 -48 26 -24 33 -26 96 -21 60 4 68 7 73 27 5 20 14 24 67 29
34 4 72 7 84 9 48 5 39 21 -19 31 -41 7 -78 36 -108 85 -31 49 -31 84 1 55 10
-9 23 -13 29 -9 6 3 33 8 60 10 64 4 97 33 109 99 10 56 28 77 67 80 39 3 45
18 12 27 -16 4 -37 2 -52 -6 -24 -13 -27 -12 -42 21 -9 19 -27 43 -39 52 -21
17 -21 19 -7 30 15 10 15 12 2 21 -8 6 -24 11 -35 11 -11 0 -25 10 -30 23 -8
17 -19 22 -50 23 -42 1 -95 -19 -95 -37 0 -13 34 -25 99 -34 71 -10 50 -25
-46 -34 -7 0 -13 -6 -13 -12 0 -8 22 -9 73 -5 64 6 75 5 90 -11 43 -49 55
-170 19 -205 -12 -11 -37 -17 -82 -19 -90 -3 -100 -1 -94 15 3 8 0 25 -7 38
-7 13 -12 53 -12 90 l0 68 -38 10 c-36 10 -52 33 -30 42 5 2 12 23 14 48 9 80
17 97 46 103 15 3 50 22 79 41 28 20 60 36 71 36 23 0 84 58 75 72 -4 5 -22
-5 -42 -24 -31 -29 -34 -31 -29 -10 7 28 -13 29 -38 2 -10 -12 -25 -18 -34
-15 -8 3 -27 -8 -48 -30 -37 -39 -43 -35 -13 10 40 60 13 62 -52 2 -48 -43
-68 -80 -68 -123 0 -15 -6 -24 -15 -24 -19 0 -18 65 2 81 6 6 17 26 23 44 6
19 19 37 28 40 9 3 24 20 33 38 8 17 28 55 44 83 18 32 26 57 22 68 -6 14 -10
16 -21 7 -11 -10 -16 -9 -23 4 -7 12 -12 12 -21 3z m-24 -320 c-2 -6 -10 -14
-16 -16 -7 -2 -10 2 -6 12 7 18 28 22 22 4z m18 -277 c2 -39 0 -71 -4 -71 -4
0 -16 10 -26 22 -15 17 -16 25 -7 40 6 10 9 29 5 43 -3 14 -3 32 0 42 13 32
28 -5 32 -76z m-51 -190 c3 -5 18 -12 34 -16 43 -9 71 -81 42 -108 -9 -9 -22
-23 -29 -31 -16 -20 -52 -21 -52 -1 0 11 -7 14 -24 9 -27 -6 -39 14 -30 52 4
14 2 24 -5 24 -14 0 -3 30 22 58 22 24 33 27 42 13z m174 -103 c1 -5 -12 -8
-28 -8 -26 0 -30 3 -29 30 l1 29 28 -22 c15 -12 28 -25 28 -29z"/>
<path d="M892 1015 c-11 -13 -10 -15 8 -15 11 0 20 -4 20 -10 0 -5 6 -10 14
-10 8 0 17 -13 21 -30 4 -16 11 -32 16 -35 5 -4 9 -18 9 -33 0 -15 7 -38 15
-50 19 -27 41 -200 27 -214 -10 -10 -42 42 -42 67 0 7 -9 24 -20 38 -11 14
-19 29 -18 34 2 4 -1 8 -7 8 -16 0 -6 -75 14 -99 15 -18 25 -86 12 -86 -6 0
-11 7 -11 15 0 8 -7 15 -15 15 -11 0 -15 -11 -15 -41 l0 -40 -27 28 c-16 16
-39 36 -53 45 -29 18 -102 31 -124 22 -29 -11 -17 -26 16 -22 67 10 148 -47
167 -117 26 -97 12 -115 -99 -117 -100 -2 -108 10 -122 177 -2 17 -7 29 -13
27 -15 -4 -9 -133 9 -175 20 -50 51 -60 159 -54 l88 6 -3 -36 c-7 -80 -118
-162 -230 -171 -66 -5 -84 -14 -52 -26 40 -15 154 9 177 38 5 7 6 3 3 -8 -6
-17 -2 -18 49 -11 45 5 56 4 61 -9 3 -9 20 -24 37 -35 40 -24 98 -19 138 12
25 19 28 27 24 57 -3 19 -5 48 -5 63 0 38 -37 72 -86 80 -46 8 -95 50 -77 68
8 8 13 8 17 0 12 -18 23 -13 48 22 20 28 23 43 23 131 0 71 4 101 13 103 8 3
12 30 12 87 0 77 -3 87 -45 170 -25 49 -45 95 -45 101 0 31 -67 54 -88 30z
m126 -449 c2 -11 -4 -19 -17 -23 -21 -5 -30 -23 -12 -23 15 0 9 -99 -6 -111
-7 -6 -13 -10 -14 -8 -14 64 -10 129 9 161 18 30 35 32 40 4z m47 -307 c43
-38 45 -68 8 -109 -31 -35 -64 -39 -93 -10 -35 35 -23 90 19 90 14 0 33 5 41
10 11 7 12 10 2 10 -13 0 -42 24 -42 34 0 16 33 3 65 -25z m-146 -74 c-8 -8
-27 -17 -44 -21 l-30 -7 35 37 c29 31 35 34 43 20 6 -11 5 -21 -4 -29z"/>
<path d="M760 843 c0 -5 7 -18 15 -29 15 -18 15 -18 13 5 -3 23 -28 44 -28 24z"/>
<path d="M827 844 c-8 -9 21 -64 33 -64 13 0 13 6 -5 40 -17 32 -18 33 -28 24z"/>
<path d="M680 825 c0 -8 2 -15 4 -15 2 0 6 7 10 15 3 8 1 15 -4 15 -6 0 -10
-7 -10 -15z"/>
<path d="M887 827 c-5 -15 10 -47 23 -47 15 0 12 29 -4 46 -11 10 -15 11 -19
1z"/>
<path d="M520 811 c0 -6 5 -13 10 -16 6 -3 10 1 10 9 0 9 -4 16 -10 16 -5 0
-10 -4 -10 -9z"/>
<path d="M550 810 c0 -5 5 -10 10 -10 6 0 10 5 10 10 0 6 -4 10 -10 10 -5 0
-10 -4 -10 -10z"/>
<path d="M610 810 c0 -5 5 -10 10 -10 6 0 10 5 10 10 0 6 -4 10 -10 10 -5 0
-10 -4 -10 -10z"/>
<path d="M770 720 c-8 -5 -22 -7 -32 -4 -9 2 -19 0 -23 -6 -3 -5 -14 -10 -24
-10 -10 0 -26 -9 -35 -19 -17 -18 -16 -19 12 -26 16 -3 60 1 97 10 37 8 70 13
75 10 4 -3 13 2 20 10 10 13 7 17 -23 30 -42 18 -47 18 -67 5z"/>
<path d="M725 277 c-83 -43 -90 -48 -71 -59 21 -12 126 36 126 57 0 23 -13 23
-55 2z"/>
<path d="M505 251 c-6 -11 9 -23 19 -14 9 9 7 23 -3 23 -6 0 -12 -4 -16 -9z"/>
<path d="M1165 150 c-3 -5 1 -10 9 -10 8 0 18 5 21 10 3 6 -1 10 -9 10 -8 0
-18 -4 -21 -10z"/>
</g>
</svg>
